<svg id="visual" viewBox="0 0 900 390" width="900" height="390" xmlns="http://www.w3.org/2000/svg" xmlns:xlink="http://www.w3.org/1999/xlink" version="1.1"><rect x="0" y="0" width="900" height="390" fill="#292929"></rect><path d="M0 221L82 220L164 181L245 189L327 178L409 245L491 240L573 218L655 220L736 172L818 245L900 232L900 391L818 391L736 391L655 391L573 391L491 391L409 391L327 391L245 391L164 391L82 391L0 391Z" fill="#441868"></path><path d="M0 227L82 209L164 262L245 218L327 229L409 230L491 220L573 252L655 233L736 252L818 241L900 257L900 391L818 391L736 391L655 391L573 391L491 391L409 391L327 391L245 391L164 391L82 391L0 391Z" fill="#4d1e74"></path><path d="M0 258L82 284L164 280L245 283L327 244L409 239L491 255L573 261L655 259L736 278L818 237L900 272L900 391L818 391L736 391L655 391L573 391L491 391L409 391L327 391L245 391L164 391L82 391L0 391Z" fill="#572580"></path><path d="M0 260L82 247L164 250L245 263L327 266L409 284L491 294L573 267L655 285L736 292L818 298L900 269L900 391L818 391L736 391L655 391L573 391L491 391L409 391L327 391L245 391L164 391L82 391L0 391Z" fill="#612c8c"></path><path d="M0 303L82 310L164 315L245 290L327 293L409 289L491 303L573 289L655 299L736 323L818 323L900 295L900 391L818 391L736 391L655 391L573 391L491 391L409 391L327 391L245 391L164 391L82 391L0 391Z" fill="#6b3298"></path><path d="M0 325L82 328L164 303L245 327L327 334L409 330L491 299L573 311L655 337L736 341L818 340L900 309L900 391L818 391L736 391L655 391L573 391L491 391L409 391L327 391L245 391L164 391L82 391L0 391Z" fill="#753aa5"></path><path d="M0 353L82 356L164 335L245 320L327 337L409 351L491 331L573 332L655 335L736 322L818 350L900 338L900 391L818 391L736 391L655 391L573 391L491 391L409 391L327 391L245 391L164 391L82 391L0 391Z" fill="#7f41b2"></path><path d="M0 361L82 365L164 362L245 380L327 372L409 357L491 347L573 362L655 348L736 364L818 379L900 352L900 391L818 391L736 391L655 391L573 391L491 391L409 391L327 391L245 391L164 391L82 391L0 391Z" fill="#8948bf"></path></svg>