<svg id="visual" viewBox="0 0 900 390" width="900" height="390" xmlns="http://www.w3.org/2000/svg" xmlns:xlink="http://www.w3.org/1999/xlink" version="1.1"><rect x="0" y="0" width="900" height="390" fill="#292929"></rect><path d="M0 175L64 160L129 145L193 186L257 182L321 164L386 205L450 190L514 208L579 212L643 194L707 185L771 173L836 148L900 156L900 0L836 0L771 0L707 0L643 0L579 0L514 0L450 0L386 0L321 0L257 0L193 0L129 0L64 0L0 0Z" fill="#4c1e72"></path><path d="M0 183L64 150L129 153L193 137L257 167L321 157L386 139L450 136L514 169L579 166L643 144L707 169L771 185L836 178L900 125L900 0L836 0L771 0L707 0L643 0L579 0L514 0L450 0L386 0L321 0L257 0L193 0L129 0L64 0L0 0Z" fill="#56257e"></path><path d="M0 164L64 119L129 133L193 108L257 134L321 144L386 122L450 146L514 147L579 104L643 136L707 140L771 138L836 147L900 109L900 0L836 0L771 0L707 0L643 0L579 0L514 0L450 0L386 0L321 0L257 0L193 0L129 0L64 0L0 0Z" fill="#602c8b"></path><path d="M0 85L64 132L129 85L193 90L257 137L321 126L386 100L450 100L514 136L579 94L643 97L707 130L771 114L836 101L900 140L900 0L836 0L771 0L707 0L643 0L579 0L514 0L450 0L386 0L321 0L257 0L193 0L129 0L64 0L0 0Z" fill="#6a3298"></path><path d="M0 110L64 95L129 114L193 103L257 75L321 69L386 99L450 111L514 76L579 94L643 106L707 108L771 108L836 101L900 92L900 0L836 0L771 0L707 0L643 0L579 0L514 0L450 0L386 0L321 0L257 0L193 0L129 0L64 0L0 0Z" fill="#7439a5"></path><path d="M0 86L64 79L129 68L193 76L257 74L321 49L386 63L450 81L514 66L579 62L643 65L707 58L771 85L836 62L900 86L900 0L836 0L771 0L707 0L643 0L579 0L514 0L450 0L386 0L321 0L257 0L193 0L129 0L64 0L0 0Z" fill="#7f41b2"></path><path d="M0 51L64 34L129 43L193 58L257 27L321 41L386 26L450 38L514 38L579 27L643 31L707 32L771 54L836 39L900 45L900 0L836 0L771 0L707 0L643 0L579 0L514 0L450 0L386 0L321 0L257 0L193 0L129 0L64 0L0 0Z" fill="#8948bf"></path><path d="M0 11L64 22L129 28L193 9L257 8L321 40L386 14L450 37L514 14L579 28L643 37L707 19L771 19L836 37L900 19L900 0L836 0L771 0L707 0L643 0L579 0L514 0L450 0L386 0L321 0L257 0L193 0L129 0L64 0L0 0Z" fill="#944fcd"></path></svg>