<svg id="visual" viewBox="0 0 900 600" width="900" height="600" xmlns="http://www.w3.org/2000/svg" xmlns:xlink="http://www.w3.org/1999/xlink" version="1.1"><rect x="0" y="0" width="900" height="600" fill="#001220"></rect><path d="M276 0L277 11.2C278 22.3 280 44.7 281.2 66.8C282.3 89 282.7 111 275.7 133.2C268.7 155.3 254.3 177.7 243.2 200C232 222.3 224 244.7 223.8 266.8C223.7 289 231.3 311 247.3 333.2C263.3 355.3 287.7 377.7 297.7 400C307.7 422.3 303.3 444.7 303.2 466.8C303 489 307 511 298.5 533.2C290 555.3 269 577.7 258.5 588.8L248 600L0 600L0 588.8C0 577.7 0 555.3 0 533.2C0 511 0 489 0 466.8C0 444.7 0 422.3 0 400C0 377.7 0 355.3 0 333.2C0 311 0 289 0 266.8C0 244.7 0 222.3 0 200C0 177.7 0 155.3 0 133.2C0 111 0 89 0 66.8C0 44.7 0 22.3 0 11.2L0 0Z" fill="#603880"></path><path d="M211 0L226.5 11.2C242 22.3 273 44.7 276 66.8C279 89 254 111 239.7 133.2C225.3 155.3 221.7 177.7 228.3 200C235 222.3 252 244.7 250.7 266.8C249.3 289 229.7 311 235.3 333.2C241 355.3 272 377.7 275.2 400C278.3 422.3 253.7 444.7 244 466.8C234.3 489 239.7 511 246.7 533.2C253.7 555.3 262.3 577.7 266.7 588.8L271 600L0 600L0 588.8C0 577.7 0 555.3 0 533.2C0 511 0 489 0 466.8C0 444.7 0 422.3 0 400C0 377.7 0 355.3 0 333.2C0 311 0 289 0 266.8C0 244.7 0 222.3 0 200C0 177.7 0 155.3 0 133.2C0 111 0 89 0 66.8C0 44.7 0 22.3 0 11.2L0 0Z" fill="#673c89"></path><path d="M243 0L236.8 11.2C230.7 22.3 218.3 44.7 208.2 66.8C198 89 190 111 202.3 133.2C214.7 155.3 247.3 177.7 259.7 200C272 222.3 264 244.7 259.3 266.8C254.7 289 253.3 311 250.2 333.2C247 355.3 242 377.7 230.2 400C218.3 422.3 199.7 444.7 191.8 466.8C184 489 187 511 189.2 533.2C191.3 555.3 192.7 577.7 193.3 588.8L194 600L0 600L0 588.8C0 577.7 0 555.3 0 533.2C0 511 0 489 0 466.8C0 444.7 0 422.3 0 400C0 377.7 0 355.3 0 333.2C0 311 0 289 0 266.8C0 244.7 0 222.3 0 200C0 177.7 0 155.3 0 133.2C0 111 0 89 0 66.8C0 44.7 0 22.3 0 11.2L0 0Z" fill="#6d4092"></path><path d="M215 0L216 11.2C217 22.3 219 44.7 212.5 66.8C206 89 191 111 187.7 133.2C184.3 155.3 192.7 177.7 206.7 200C220.7 222.3 240.3 244.7 239.3 266.8C238.3 289 216.7 311 207.3 333.2C198 355.3 201 377.7 196.5 400C192 422.3 180 444.7 178.8 466.8C177.7 489 187.3 511 192 533.2C196.7 555.3 196.3 577.7 196.2 588.8L196 600L0 600L0 588.8C0 577.7 0 555.3 0 533.2C0 511 0 489 0 466.8C0 444.7 0 422.3 0 400C0 377.7 0 355.3 0 333.2C0 311 0 289 0 266.8C0 244.7 0 222.3 0 200C0 177.7 0 155.3 0 133.2C0 111 0 89 0 66.8C0 44.7 0 22.3 0 11.2L0 0Z" fill="#74449b"></path><path d="M202 0L202.2 11.2C202.3 22.3 202.7 44.7 198.3 66.8C194 89 185 111 184.5 133.2C184 155.3 192 177.7 189.8 200C187.7 222.3 175.3 244.7 180.3 266.8C185.3 289 207.7 311 215.2 333.2C222.7 355.3 215.3 377.7 205 400C194.7 422.3 181.3 444.7 184.5 466.8C187.7 489 207.3 511 205.8 533.2C204.3 555.3 181.7 577.7 170.3 588.8L159 600L0 600L0 588.8C0 577.7 0 555.3 0 533.2C0 511 0 489 0 466.8C0 444.7 0 422.3 0 400C0 377.7 0 355.3 0 333.2C0 311 0 289 0 266.8C0 244.7 0 222.3 0 200C0 177.7 0 155.3 0 133.2C0 111 0 89 0 66.8C0 44.7 0 22.3 0 11.2L0 0Z" fill="#7b48a5"></path><path d="M142 0L142 11.2C142 22.3 142 44.7 144.8 66.8C147.7 89 153.3 111 162 133.2C170.7 155.3 182.3 177.7 183.8 200C185.3 222.3 176.7 244.7 164.5 266.8C152.3 289 136.7 311 132.5 333.2C128.3 355.3 135.7 377.7 138.2 400C140.7 422.3 138.3 444.7 143.2 466.8C148 489 160 511 165.8 533.2C171.7 555.3 171.3 577.7 171.2 588.8L171 600L0 600L0 588.8C0 577.7 0 555.3 0 533.2C0 511 0 489 0 466.8C0 444.7 0 422.3 0 400C0 377.7 0 355.3 0 333.2C0 311 0 289 0 266.8C0 244.7 0 222.3 0 200C0 177.7 0 155.3 0 133.2C0 111 0 89 0 66.8C0 44.7 0 22.3 0 11.2L0 0Z" fill="#824cae"></path><path d="M167 0L163 11.2C159 22.3 151 44.7 140.7 66.8C130.3 89 117.7 111 122.2 133.2C126.7 155.3 148.3 177.7 153.8 200C159.3 222.3 148.7 244.7 139.8 266.8C131 289 124 311 126.8 333.2C129.7 355.3 142.3 377.7 143.2 400C144 422.3 133 444.7 126 466.8C119 489 116 511 120 533.2C124 555.3 135 577.7 140.5 588.8L146 600L0 600L0 588.8C0 577.7 0 555.3 0 533.2C0 511 0 489 0 466.8C0 444.7 0 422.3 0 400C0 377.7 0 355.3 0 333.2C0 311 0 289 0 266.8C0 244.7 0 222.3 0 200C0 177.7 0 155.3 0 133.2C0 111 0 89 0 66.8C0 44.7 0 22.3 0 11.2L0 0Z" fill="#8950b8"></path><path d="M110 0L110.7 11.2C111.3 22.3 112.7 44.7 108.8 66.8C105 89 96 111 96.5 133.2C97 155.3 107 177.7 107.2 200C107.3 222.3 97.7 244.7 96.2 266.8C94.7 289 101.3 311 107.2 333.2C113 355.3 118 377.7 115.2 400C112.3 422.3 101.7 444.7 97 466.8C92.3 489 93.7 511 101.3 533.2C109 555.3 123 577.7 130 588.8L137 600L0 600L0 588.8C0 577.7 0 555.3 0 533.2C0 511 0 489 0 466.8C0 444.7 0 422.3 0 400C0 377.7 0 355.3 0 333.2C0 311 0 289 0 266.8C0 244.7 0 222.3 0 200C0 177.7 0 155.3 0 133.2C0 111 0 89 0 66.8C0 44.7 0 22.3 0 11.2L0 0Z" fill="#9054c1"></path><path d="M110 0L109.3 11.2C108.7 22.3 107.3 44.7 106.5 66.8C105.7 89 105.3 111 101.5 133.2C97.7 155.3 90.3 177.7 90.7 200C91 222.3 99 244.7 95.7 266.8C92.3 289 77.7 311 72.3 333.2C67 355.3 71 377.7 71.3 400C71.7 422.3 68.3 444.7 73.7 466.8C79 489 93 511 98.8 533.2C104.7 555.3 102.3 577.7 101.2 588.8L100 600L0 600L0 588.8C0 577.7 0 555.3 0 533.2C0 511 0 489 0 466.8C0 444.7 0 422.3 0 400C0 377.7 0 355.3 0 333.2C0 311 0 289 0 266.8C0 244.7 0 222.3 0 200C0 177.7 0 155.3 0 133.2C0 111 0 89 0 66.8C0 44.7 0 22.3 0 11.2L0 0Z" fill="#9758cb"></path><path d="M80 0L77.3 11.2C74.7 22.3 69.3 44.7 65.5 66.8C61.7 89 59.3 111 58 133.2C56.7 155.3 56.3 177.7 59.2 200C62 222.3 68 244.7 71.5 266.8C75 289 76 311 73.7 333.2C71.3 355.3 65.7 377.7 66 400C66.3 422.3 72.7 444.7 72.2 466.8C71.7 489 64.3 511 59.5 533.2C54.7 555.3 52.3 577.7 51.2 588.8L50 600L0 600L0 588.8C0 577.7 0 555.3 0 533.2C0 511 0 489 0 466.8C0 444.7 0 422.3 0 400C0 377.7 0 355.3 0 333.2C0 311 0 289 0 266.8C0 244.7 0 222.3 0 200C0 177.7 0 155.3 0 133.2C0 111 0 89 0 66.8C0 44.7 0 22.3 0 11.2L0 0Z" fill="#9f5dd5"></path><path d="M43 0L42.7 11.2C42.3 22.3 41.7 44.7 41.7 66.8C41.7 89 42.3 111 39.8 133.2C37.3 155.3 31.7 177.7 30.8 200C30 222.3 34 244.7 36.2 266.8C38.3 289 38.7 311 40.8 333.2C43 355.3 47 377.7 46.7 400C46.3 422.3 41.7 444.7 38.2 466.8C34.7 489 32.3 511 31.8 533.2C31.3 555.3 32.7 577.7 33.3 588.8L34 600L0 600L0 588.8C0 577.7 0 555.3 0 533.2C0 511 0 489 0 466.8C0 444.7 0 422.3 0 400C0 377.7 0 355.3 0 333.2C0 311 0 289 0 266.8C0 244.7 0 222.3 0 200C0 177.7 0 155.3 0 133.2C0 111 0 89 0 66.8C0 44.7 0 22.3 0 11.2L0 0Z" fill="#a661df"></path></svg>