<svg id="visual" viewBox="0 0 900 390" width="900" height="390" xmlns="http://www.w3.org/2000/svg" xmlns:xlink="http://www.w3.org/1999/xlink" version="1.1"><rect x="0" y="0" width="900" height="390" fill="#292929"></rect><path d="M0 206L113 215L225 240L338 211L450 233L563 193L675 230L788 215L900 231L900 391L788 391L675 391L563 391L450 391L338 391L225 391L113 391L0 391Z" fill="#66219f"></path><path d="M0 260L113 220L225 246L338 220L450 215L563 243L675 227L788 240L900 241L900 391L788 391L675 391L563 391L450 391L338 391L225 391L113 391L0 391Z" fill="#6f2ba8"></path><path d="M0 249L113 275L225 278L338 273L450 272L563 249L675 269L788 246L900 255L900 391L788 391L675 391L563 391L450 391L338 391L225 391L113 391L0 391Z" fill="#7834b1"></path><path d="M0 283L113 294L225 296L338 271L450 262L563 286L675 274L788 263L900 291L900 391L788 391L675 391L563 391L450 391L338 391L225 391L113 391L0 391Z" fill="#813dba"></path><path d="M0 304L113 287L225 301L338 315L450 286L563 285L675 315L788 310L900 303L900 391L788 391L675 391L563 391L450 391L338 391L225 391L113 391L0 391Z" fill="#8b46c4"></path><path d="M0 323L113 328L225 333L338 319L450 320L563 327L675 326L788 314L900 334L900 391L788 391L675 391L563 391L450 391L338 391L225 391L113 391L0 391Z" fill="#944fcd"></path><path d="M0 336L113 338L225 348L338 334L450 354L563 354L675 342L788 339L900 354L900 391L788 391L675 391L563 391L450 391L338 391L225 391L113 391L0 391Z" fill="#9d58d6"></path><path d="M0 359L113 362L225 354L338 358L450 362L563 369L675 354L788 362L900 357L900 391L788 391L675 391L563 391L450 391L338 391L225 391L113 391L0 391Z" fill="#a661df"></path></svg>