<svg id="visual" viewBox="0 0 960 1000" width="960" height="1000" xmlns="http://www.w3.org/2000/svg" xmlns:xlink="http://www.w3.org/1999/xlink" version="1.1"><rect x="0" y="0" width="960" height="1000" fill="#292929"></rect><path d="M306 0L283 67L273 133L408 200L340 267L370 333L336 400L397 467L278 533L348 600L352 667L342 733L379 800L301 867L327 933L267 1000L0 1000L0 933L0 867L0 800L0 733L0 667L0 600L0 533L0 467L0 400L0 333L0 267L0 200L0 133L0 67L0 0Z" fill="#603880"></path><path d="M366 0L334 67L340 133L246 200L366 267L307 333L288 400L248 467L285 533L307 600L276 667L276 733L303 800L258 867L272 933L237 1000L0 1000L0 933L0 867L0 800L0 733L0 667L0 600L0 533L0 467L0 400L0 333L0 267L0 200L0 133L0 67L0 0Z" fill="#683d8b"></path><path d="M268 0L227 67L260 133L246 200L296 267L290 333L310 400L305 467L249 533L297 600L228 667L207 733L298 800L221 867L211 933L285 1000L0 1000L0 933L0 867L0 800L0 733L0 667L0 600L0 533L0 467L0 400L0 333L0 267L0 200L0 133L0 67L0 0Z" fill="#714297"></path><path d="M197 0L258 67L202 133L239 200L236 267L251 333L230 400L183 467L189 533L251 600L210 667L193 733L192 800L241 867L261 933L264 1000L0 1000L0 933L0 867L0 800L0 733L0 667L0 600L0 533L0 467L0 400L0 333L0 267L0 200L0 133L0 67L0 0Z" fill="#7947a2"></path><path d="M168 0L188 67L187 133L161 200L205 267L155 333L217 400L207 467L151 533L189 600L210 667L197 733L205 800L192 867L160 933L182 1000L0 1000L0 933L0 867L0 800L0 733L0 667L0 600L0 533L0 467L0 400L0 333L0 267L0 200L0 133L0 67L0 0Z" fill="#824cae"></path><path d="M154 0L145 67L130 133L188 200L139 267L171 333L152 400L143 467L176 533L153 600L139 667L161 733L159 800L162 867L158 933L180 1000L0 1000L0 933L0 867L0 800L0 733L0 667L0 600L0 533L0 467L0 400L0 333L0 267L0 200L0 133L0 67L0 0Z" fill="#8b51ba"></path><path d="M120 0L150 67L116 133L121 200L130 267L107 333L89 400L123 467L92 533L130 600L86 667L128 733L99 800L148 867L130 933L142 1000L0 1000L0 933L0 867L0 800L0 733L0 667L0 600L0 533L0 467L0 400L0 333L0 267L0 200L0 133L0 67L0 0Z" fill="#9456c6"></path><path d="M113 0L83 67L105 133L112 200L87 267L87 333L63 400L75 467L108 533L104 600L61 667L65 733L77 800L81 867L100 933L58 1000L0 1000L0 933L0 867L0 800L0 733L0 667L0 600L0 533L0 467L0 400L0 333L0 267L0 200L0 133L0 67L0 0Z" fill="#9d5cd3"></path><path d="M33 0L65 67L28 133L40 200L72 267L73 333L43 400L50 467L61 533L42 600L39 667L71 733L51 800L65 867L41 933L54 1000L0 1000L0 933L0 867L0 800L0 733L0 667L0 600L0 533L0 467L0 400L0 333L0 267L0 200L0 133L0 67L0 0Z" fill="#a661df"></path></svg>