<svg id="visual" viewBox="0 0 900 1000" width="900" height="1000" xmlns="http://www.w3.org/2000/svg" xmlns:xlink="http://www.w3.org/1999/xlink" version="1.1"><rect x="0" y="0" width="900" height="1000" fill="#292929"></rect><path d="M239 0L254 18.5C269 37 299 74 305.7 111C312.3 148 295.7 185 294.3 222C293 259 307 296 304.2 333C301.3 370 281.7 407 270 444.2C258.3 481.3 254.7 518.7 252.5 555.8C250.3 593 249.7 630 255.2 667C260.7 704 272.3 741 279.7 778C287 815 290 852 295.3 889C300.7 926 308.3 963 312.2 981.5L316 1000L0 1000L0 981.5C0 963 0 926 0 889C0 852 0 815 0 778C0 741 0 704 0 667C0 630 0 593 0 555.8C0 518.7 0 481.3 0 444.2C0 407 0 370 0 333C0 296 0 259 0 222C0 185 0 148 0 111C0 74 0 37 0 18.5L0 0Z" fill="#603880"></path><path d="M306 0L295.2 18.5C284.3 37 262.7 74 244.7 111C226.7 148 212.3 185 207 222C201.7 259 205.3 296 212.3 333C219.3 370 229.7 407 237.3 444.2C245 481.3 250 518.7 246.5 555.8C243 593 231 630 227.2 667C223.3 704 227.7 741 225.2 778C222.7 815 213.3 852 220.3 889C227.3 926 250.7 963 262.3 981.5L274 1000L0 1000L0 981.5C0 963 0 926 0 889C0 852 0 815 0 778C0 741 0 704 0 667C0 630 0 593 0 555.8C0 518.7 0 481.3 0 444.2C0 407 0 370 0 333C0 296 0 259 0 222C0 185 0 148 0 111C0 74 0 37 0 18.5L0 0Z" fill="#673c89"></path><path d="M229 0L221 18.5C213 37 197 74 196.5 111C196 148 211 185 212.7 222C214.3 259 202.7 296 203.2 333C203.7 370 216.3 407 215.7 444.2C215 481.3 201 518.7 207.7 555.8C214.3 593 241.7 630 246 667C250.3 704 231.7 741 224.8 778C218 815 223 852 217.3 889C211.7 926 195.3 963 187.2 981.5L179 1000L0 1000L0 981.5C0 963 0 926 0 889C0 852 0 815 0 778C0 741 0 704 0 667C0 630 0 593 0 555.8C0 518.7 0 481.3 0 444.2C0 407 0 370 0 333C0 296 0 259 0 222C0 185 0 148 0 111C0 74 0 37 0 18.5L0 0Z" fill="#6d4092"></path><path d="M242 0L232.3 18.5C222.7 37 203.3 74 205.7 111C208 148 232 185 240.5 222C249 259 242 296 240.8 333C239.7 370 244.3 407 246.5 444.2C248.7 481.3 248.3 518.7 245.8 555.8C243.3 593 238.7 630 234.3 667C230 704 226 741 223.5 778C221 815 220 852 223.5 889C227 926 235 963 239 981.5L243 1000L0 1000L0 981.5C0 963 0 926 0 889C0 852 0 815 0 778C0 741 0 704 0 667C0 630 0 593 0 555.8C0 518.7 0 481.3 0 444.2C0 407 0 370 0 333C0 296 0 259 0 222C0 185 0 148 0 111C0 74 0 37 0 18.5L0 0Z" fill="#74449b"></path><path d="M215 0L206.7 18.5C198.3 37 181.7 74 178.5 111C175.3 148 185.7 185 188.7 222C191.7 259 187.3 296 189.5 333C191.7 370 200.3 407 201.5 444.2C202.7 481.3 196.3 518.7 191.3 555.8C186.3 593 182.7 630 176 667C169.3 704 159.7 741 165 778C170.3 815 190.7 852 196.2 889C201.7 926 192.3 963 187.7 981.5L183 1000L0 1000L0 981.5C0 963 0 926 0 889C0 852 0 815 0 778C0 741 0 704 0 667C0 630 0 593 0 555.8C0 518.7 0 481.3 0 444.2C0 407 0 370 0 333C0 296 0 259 0 222C0 185 0 148 0 111C0 74 0 37 0 18.5L0 0Z" fill="#7b48a5"></path><path d="M133 0L136.3 18.5C139.7 37 146.3 74 149 111C151.7 148 150.3 185 147.5 222C144.7 259 140.3 296 141.2 333C142 370 148 407 152 444.2C156 481.3 158 518.7 158.2 555.8C158.3 593 156.7 630 156.8 667C157 704 159 741 164.5 778C170 815 179 852 180.7 889C182.3 926 176.7 963 173.8 981.5L171 1000L0 1000L0 981.5C0 963 0 926 0 889C0 852 0 815 0 778C0 741 0 704 0 667C0 630 0 593 0 555.8C0 518.7 0 481.3 0 444.2C0 407 0 370 0 333C0 296 0 259 0 222C0 185 0 148 0 111C0 74 0 37 0 18.5L0 0Z" fill="#824cae"></path><path d="M163 0L156.3 18.5C149.7 37 136.3 74 128.3 111C120.3 148 117.7 185 122.7 222C127.7 259 140.3 296 145.8 333C151.3 370 149.7 407 151.2 444.2C152.7 481.3 157.3 518.7 157.2 555.8C157 593 152 630 144.3 667C136.7 704 126.3 741 127.7 778C129 815 142 852 142.7 889C143.3 926 131.7 963 125.8 981.5L120 1000L0 1000L0 981.5C0 963 0 926 0 889C0 852 0 815 0 778C0 741 0 704 0 667C0 630 0 593 0 555.8C0 518.7 0 481.3 0 444.2C0 407 0 370 0 333C0 296 0 259 0 222C0 185 0 148 0 111C0 74 0 37 0 18.5L0 0Z" fill="#8950b8"></path><path d="M112 0L112.5 18.5C113 37 114 74 111.3 111C108.7 148 102.3 185 103.8 222C105.3 259 114.7 296 115.2 333C115.7 370 107.3 407 101.8 444.2C96.3 481.3 93.7 518.7 99 555.8C104.3 593 117.7 630 123.7 667C129.7 704 128.3 741 129.2 778C130 815 133 852 125.5 889C118 926 100 963 91 981.5L82 1000L0 1000L0 981.5C0 963 0 926 0 889C0 852 0 815 0 778C0 741 0 704 0 667C0 630 0 593 0 555.8C0 518.7 0 481.3 0 444.2C0 407 0 370 0 333C0 296 0 259 0 222C0 185 0 148 0 111C0 74 0 37 0 18.5L0 0Z" fill="#9054c1"></path><path d="M73 0L79.7 18.5C86.3 37 99.7 74 102.2 111C104.7 148 96.3 185 89.8 222C83.3 259 78.7 296 78.5 333C78.3 370 82.7 407 87.5 444.2C92.3 481.3 97.7 518.7 96.8 555.8C96 593 89 630 85.7 667C82.3 704 82.7 741 84.5 778C86.3 815 89.7 852 86.5 889C83.3 926 73.7 963 68.8 981.5L64 1000L0 1000L0 981.5C0 963 0 926 0 889C0 852 0 815 0 778C0 741 0 704 0 667C0 630 0 593 0 555.8C0 518.7 0 481.3 0 444.2C0 407 0 370 0 333C0 296 0 259 0 222C0 185 0 148 0 111C0 74 0 37 0 18.5L0 0Z" fill="#9758cb"></path><path d="M65 0L67.7 18.5C70.3 37 75.7 74 76.3 111C77 148 73 185 67.2 222C61.3 259 53.7 296 54.5 333C55.3 370 64.7 407 69.2 444.2C73.7 481.3 73.3 518.7 74.5 555.8C75.7 593 78.3 630 77.2 667C76 704 71 741 66.8 778C62.7 815 59.3 852 61.7 889C64 926 72 963 76 981.5L80 1000L0 1000L0 981.5C0 963 0 926 0 889C0 852 0 815 0 778C0 741 0 704 0 667C0 630 0 593 0 555.8C0 518.7 0 481.3 0 444.2C0 407 0 370 0 333C0 296 0 259 0 222C0 185 0 148 0 111C0 74 0 37 0 18.5L0 0Z" fill="#9f5dd5"></path><path d="M25 0L26.7 18.5C28.3 37 31.7 74 33.5 111C35.3 148 35.7 185 37.8 222C40 259 44 296 45 333C46 370 44 407 44.7 444.2C45.3 481.3 48.7 518.7 49.2 555.8C49.7 593 47.3 630 46.7 667C46 704 47 741 48.2 778C49.3 815 50.7 852 49 889C47.3 926 42.7 963 40.3 981.5L38 1000L0 1000L0 981.5C0 963 0 926 0 889C0 852 0 815 0 778C0 741 0 704 0 667C0 630 0 593 0 555.8C0 518.7 0 481.3 0 444.2C0 407 0 370 0 333C0 296 0 259 0 222C0 185 0 148 0 111C0 74 0 37 0 18.5L0 0Z" fill="#a661df"></path></svg>